<svg width="881" height="162" viewBox="0 0 881 162" fill="none" xmlns="http://www.w3.org/2000/svg">
<g clip-path="url(#clip0_3_16)">
<path d="M20.5116 102.243C1.76027 75.6467 8.26842 38.988 35.0476 20.3645C61.826 1.74002 98.7347 8.20395 117.486 34.8023C136.236 61.3994 129.727 98.0584 102.948 116.683C76.1715 135.306 39.2618 128.841 20.5116 102.243ZM125.514 29.219C103.659 -1.78252 60.638 -9.31771 29.4265 12.3896C-1.78608 34.0982 -9.37276 76.8259 12.4825 107.827C26.9039 128.282 50.5361 138.514 73.9122 136.876L50.5202 153.146C48.3032 154.686 47.764 157.723 49.3154 159.925C50.8677 162.125 53.9233 162.661 56.1405 161.121L108.57 124.656C139.784 102.95 147.367 60.2194 125.514 29.219Z" fill="#040606"/>
</g>
<mask id="mask0_3_16" style="mask-type:luminance" maskUnits="userSpaceOnUse" x="244" y="19" width="637" height="120">
<path d="M880.423 19H244V139H880.423V19Z" fill="white"/>
</mask>
<g mask="url(#mask0_3_16)">
<path fill-rule="evenodd" clip-rule="evenodd" d="M621.591 29.32C623.438 29.32 624.933 29.8831 626.046 30.9908C626.934 31.8843 627.478 33.026 627.658 34.3874L627.725 35.4493V96.5939C627.616 104.514 625.642 111.788 621.85 118.249C618.051 124.729 612.812 129.862 606.291 133.508C599.779 137.154 592.484 139 584.607 139C576.527 139 569.093 137.098 562.534 133.36C555.958 129.603 550.729 124.36 546.984 117.788C543.239 111.224 541.348 103.794 541.348 95.7078C541.348 87.7139 543.239 80.3384 546.984 73.7661C550.729 67.1939 555.967 61.9506 562.534 58.2033C569.093 54.4554 576.527 52.5539 584.607 52.5539C591.875 52.5539 598.562 54.1416 604.474 57.28C608.071 59.1955 611.226 61.5531 613.908 64.3319L615.459 66.0494V35.4493C615.459 33.5847 616.068 32.08 617.258 30.9631C618.411 29.8739 619.867 29.32 621.591 29.32ZM684.351 52.5539C692.328 52.5539 699.706 54.4554 706.275 58.2033C712.84 61.9506 718.07 67.1845 721.825 73.7661C725.152 79.6083 727.026 86.1288 727.401 93.178L727.468 95.8461V131.976C727.468 133.702 726.917 135.16 725.827 136.314C724.703 137.505 723.2 138.104 721.345 138.104C719.592 138.104 718.115 137.514 716.965 136.351C716.036 135.428 715.47 134.298 715.283 132.989L715.211 131.976V125.504C712.225 129.049 708.534 131.985 704.218 134.274C698.316 137.412 691.627 139 684.351 139C676.268 139 668.845 137.098 662.288 133.36C655.712 129.603 650.473 124.36 646.726 117.788C642.991 111.224 641.091 103.84 641.091 95.8461C641.091 87.76 642.991 80.3384 646.726 73.7661C650.473 67.1845 655.712 61.9506 662.288 58.2033C668.853 54.4554 676.268 52.5539 684.351 52.5539ZM830.977 52.5539C838.965 52.5539 846.332 54.4554 852.901 58.2033C859.469 61.9506 864.697 67.1845 868.444 73.7661L869.624 75.9884C872.584 81.9978 874.087 88.6668 874.087 95.8461V131.976C874.087 133.702 873.543 135.16 872.453 136.314C871.329 137.505 869.826 138.104 867.964 138.104C866.218 138.104 864.745 137.514 863.591 136.351C862.43 135.197 861.83 133.72 861.83 131.976V125.504C858.84 129.049 855.16 131.985 850.851 134.274C844.931 137.412 838.254 139 830.977 139C822.898 139 815.464 137.098 808.903 133.36C802.327 129.603 797.1 124.36 793.353 117.788C789.609 111.224 787.709 103.84 787.709 95.8461C787.709 87.76 789.609 80.3384 793.353 73.7661C797.1 67.1939 802.327 61.9506 808.903 58.2033C815.464 54.4554 822.898 52.5539 830.977 52.5539ZM400.597 52.7016C407.263 52.7016 413.389 54.1311 418.833 56.9448L420.843 58.0645L422.773 59.3054C427.798 62.7554 431.826 67.3304 434.761 72.9261C438.044 79.1845 439.705 86.3939 439.705 94.36C439.705 96.1233 439.124 97.5723 437.989 98.6339C437.104 99.4611 436.006 99.9689 434.724 100.139L433.728 100.203H373.286C373.757 105.04 375.186 109.462 377.52 113.348C380.13 117.677 383.663 121.111 388.044 123.52C392.416 125.948 397.387 127.184 402.829 127.184C406.491 127.184 410.227 126.529 413.953 125.265C417.614 124.009 420.529 122.357 422.623 120.363C424.015 119.228 425.418 118.711 426.893 118.711C428.388 118.711 429.642 119.144 430.647 119.994C432.483 121.498 432.87 123.224 432.87 124.397C432.87 125.837 432.262 127.185 431.044 128.403C427.668 131.468 423.315 133.978 418.039 135.926C412.772 137.864 407.662 138.843 402.829 138.843C394.74 138.843 387.435 136.997 381.126 133.351C374.799 129.695 369.763 124.535 366.156 117.991C362.569 111.483 360.752 104.034 360.752 95.8461C360.752 87.5939 362.439 80.1078 365.769 73.6094C369.108 67.0645 373.867 61.8861 379.899 58.2306C385.941 54.5569 392.895 52.7016 400.597 52.7016ZM265.721 27.5754C267.557 27.5754 269.079 28.1662 270.241 29.3293C271.178 30.2671 271.743 31.4295 271.932 32.7974L272.003 33.8616V56.4216H289.933C291.584 56.4216 292.958 56.9571 294.019 58.0278C295.08 59.0894 295.624 60.4555 295.624 62.0984C295.624 63.7506 295.08 65.1261 294.01 66.1878C293.169 67.0371 292.121 67.5554 290.89 67.7286L289.933 67.7939H272.003V107.892C272.003 113.237 273.589 117.446 276.863 120.76C279.766 123.714 283.353 125.318 287.787 125.638L289.49 125.698H292.765C294.591 125.698 296.113 126.289 297.284 127.443C298.447 128.615 299.037 130.138 299.037 131.976C299.037 133.72 298.447 135.197 297.284 136.351C296.355 137.289 295.195 137.848 293.828 138.035L292.765 138.104H289.343C283.624 138.104 278.441 136.785 273.949 134.172C269.448 131.542 265.887 127.904 263.369 123.344C261.182 119.371 259.934 114.895 259.657 110.011L259.597 107.892V67.7939H249.682C248.031 67.7939 246.666 67.2494 245.605 66.1784C244.544 65.1261 244 63.7506 244 62.0984C244 60.4555 244.544 59.0894 245.605 58.0278C246.453 57.1713 247.497 56.6571 248.726 56.4858L249.682 56.4216H259.597V33.8616C259.597 32.0154 260.187 30.4923 261.349 29.3293C262.512 28.1662 263.987 27.5754 265.721 27.5754ZM347.792 52.5539C356.389 52.5539 360.752 54.7693 360.752 59.1355C360.752 59.8094 360.678 60.3723 360.521 60.8433C360.143 62.2371 359.451 63.3261 358.473 64C357.542 64.6371 356.352 64.96 354.922 64.96C353.954 64.96 352.699 64.8584 351.205 64.6461C349.84 64.4616 348.696 64.3694 347.792 64.3694C343.144 64.3694 338.965 65.3478 335.368 67.2955C331.789 69.2155 328.958 71.9106 326.947 75.2984C325.224 78.2024 324.232 81.4518 323.984 84.9891L323.922 86.7816V131.976C323.922 133.702 323.359 135.16 322.271 136.323C321.155 137.504 319.651 138.104 317.788 138.104C316.045 138.104 314.569 137.514 313.407 136.351C312.485 135.428 311.923 134.298 311.734 132.989L311.664 131.976V59.5784C311.664 57.7139 312.263 56.2093 313.453 55.0923C314.606 54.0031 316.063 53.44 317.788 53.44C319.633 53.44 321.127 54.0123 322.234 55.1293C323.127 56.0154 323.671 57.1555 323.854 58.5168L323.922 59.5784V63.7139C326.357 60.8706 329.189 58.4984 332.398 56.6433C337.093 53.9293 342.267 52.5539 347.792 52.5539ZM491.882 52.4062C499.344 52.4062 506.124 53.9662 512.036 57.0584C517.994 60.16 522.726 64.7661 526.083 70.72C529.059 75.9876 530.731 82.2329 531.066 89.2994L531.129 91.9878V131.976C531.129 133.72 530.538 135.188 529.376 136.351C528.214 137.523 526.747 138.104 525.004 138.104C523.261 138.104 521.794 137.514 520.632 136.351C519.702 135.428 519.139 134.298 518.95 132.989L518.88 131.976V91.9878C518.88 83.0984 516.38 76.2584 511.455 71.6523C506.502 67.0184 499.916 64.6645 491.882 64.6645C486.911 64.6645 482.327 65.6339 478.25 67.5539C474.238 69.4461 471.037 72.1045 468.75 75.4645C466.805 78.3051 465.68 81.4371 465.398 84.7911L465.328 86.4861V131.976C465.328 133.702 464.774 135.16 463.677 136.314C462.57 137.505 461.057 138.104 459.194 138.104C457.451 138.104 455.984 137.514 454.822 136.351C453.893 135.428 453.329 134.298 453.141 132.989L453.07 131.976V59.5784C453.07 57.7139 453.669 56.2093 454.859 55.0923C456.012 54.0031 457.479 53.44 459.194 53.44C461.039 53.44 462.533 54.0123 463.649 55.1293C464.535 56.0154 465.078 57.1555 465.259 58.5168L465.328 59.5784V62.9939C468.215 60.1694 471.545 57.8433 475.262 56.0616C480.325 53.6339 485.915 52.4062 491.882 52.4062ZM753.461 27.5754C755.286 27.5754 756.819 28.1662 757.98 29.3293C758.917 30.2671 759.483 31.4295 759.674 32.7974L759.741 33.8616V56.4216H777.675C779.324 56.4216 780.691 56.9571 781.759 58.0278C782.82 59.0894 783.363 60.4645 783.363 62.0984C783.363 63.7506 782.82 65.1261 781.759 66.1878C780.905 67.0371 779.859 67.5554 778.63 67.7286L777.675 67.7939H759.741V107.892C759.741 113.237 761.33 117.446 764.605 120.76C767.513 123.714 771.095 125.318 775.528 125.638L777.229 125.698H780.496C782.332 125.698 783.854 126.289 785.015 127.443C786.188 128.615 786.776 130.138 786.776 131.976C786.776 133.72 786.188 135.197 785.015 136.36C784.094 137.283 782.936 137.846 781.564 138.034L780.496 138.104H777.083C771.365 138.104 766.183 136.785 761.69 134.172C757.19 131.542 753.626 127.904 751.108 123.344C748.916 119.371 747.672 114.895 747.395 110.011L747.339 107.892V67.7939H737.42C735.772 67.7939 734.408 67.2494 733.343 66.1784C732.275 65.1261 731.74 63.7506 731.74 62.0984C731.74 60.4555 732.275 59.08 733.355 58.0278C734.194 57.1713 735.236 56.6571 736.465 56.4858L737.42 56.4216H747.339V33.8616C747.339 32.0154 747.927 30.4923 749.089 29.3293C750.261 28.1662 751.726 27.5754 753.461 27.5754ZM584.607 64.2216C578.796 64.2216 573.483 65.5971 568.807 68.3106C564.139 71.0155 560.395 74.8094 557.683 79.5816C554.971 84.3539 553.597 89.7816 553.597 95.7078C553.597 101.625 554.971 107.052 557.683 111.825C560.395 116.597 564.139 120.418 568.816 123.178C573.483 125.929 578.796 127.323 584.607 127.323C590.417 127.323 595.73 125.929 600.397 123.178C605.064 120.418 608.781 116.597 611.447 111.834C614.113 107.062 615.459 101.625 615.459 95.7078C615.459 89.7723 614.113 84.3539 611.447 79.5723C608.791 74.8094 605.064 71.0155 600.406 68.3106C595.73 65.5971 590.417 64.2216 584.607 64.2216ZM684.351 64.2216C678.546 64.2216 673.237 65.6155 668.561 68.3755C663.884 71.1355 660.137 74.9571 657.435 79.7294C654.715 84.5016 653.34 89.9294 653.34 95.8461C653.34 101.772 654.715 107.2 657.428 111.972C660.148 116.745 663.884 120.538 668.549 123.243C673.218 125.957 678.531 127.323 684.351 127.323C690.17 127.323 695.483 125.957 700.148 123.243C704.817 120.538 708.523 116.754 711.191 111.982C713.855 107.209 715.211 101.782 715.211 95.8461C715.211 89.9294 713.855 84.4923 711.191 79.72C708.523 74.9571 704.817 71.1355 700.141 68.3755C695.464 65.6155 690.151 64.2216 684.351 64.2216ZM830.977 64.2216C825.176 64.2216 819.852 65.6155 815.187 68.3755C810.51 71.1355 806.775 74.9571 804.062 79.7294C801.341 84.5016 799.959 89.9294 799.959 95.8461C799.959 101.772 801.341 107.2 804.062 111.972C806.775 116.745 810.51 120.538 815.175 123.243C819.844 125.957 825.158 127.323 830.977 127.323C836.796 127.323 842.109 125.957 846.774 123.243C851.436 120.538 855.153 116.754 857.817 111.982C860.481 107.209 861.83 101.782 861.83 95.8461C861.83 89.9294 860.481 84.5016 857.817 79.72C855.153 74.9571 851.436 71.1355 846.767 68.3755C842.091 65.6155 836.777 64.2216 830.977 64.2216ZM400.597 64.3694C393.357 64.3694 387.177 66.8155 382.233 71.6245C378.142 75.604 375.384 80.6924 374.006 86.7918L373.554 89.1261H427.567C426.653 81.9723 423.887 76.0923 419.339 71.6245C414.368 66.7416 408.234 64.3694 400.597 64.3694Z" fill="#000105"/>
</g>
<defs>
<clipPath id="clip0_3_16">
<rect width="138" height="162" fill="white"/>
</clipPath>
</defs>
</svg>
